<svg xmlns="http://www.w3.org/2000/svg" version="1.1" xmlns:xlink="http://www.w3.org/1999/xlink" xmlns:svgjs="http://svgjs.dev/svgjs" width="1000" height="623" viewBox="0 0 1000 623"><g transform="matrix(1,0,0,1,-0.6060606060606233,0.2522267206477409)"><svg viewBox="0 0 396 247" data-background-color="#ffffff" preserveAspectRatio="xMidYMid meet" height="623" width="1000" xmlns="http://www.w3.org/2000/svg" xmlns:xlink="http://www.w3.org/1999/xlink"><g id="tight-bounds" transform="matrix(1,0,0,1,0.2400000000000091,-0.09999999999999432)"><svg viewBox="0 0 395.52 247.2" height="247.2" width="395.52"><g><svg></svg></g><g><svg viewBox="0 0 395.52 247.2" height="247.2" width="395.52"><mask id="ffc5b176-eafb-4f1e-b56d-b9c0959407c8"><rect width="395.52" height="247.2" fill="white"></rect><g transform="matrix(1,0,0,1,0,83.11167533818939)" id="clone"><svg viewBox="0 0 395.52 80.97664932362122" height="80.97664932362122" width="395.52"><g><svg viewBox="0 0 395.52 80.97664932362122" height="80.97664932362122" width="395.52"><g><svg viewBox="0 0 395.52 80.97664932362122" height="80.97664932362122" width="395.52"><g><svg viewBox="0 0 395.52 80.97664932362122" height="80.97664932362122" width="395.52"><g id="SvgjsG1006"><svg viewBox="0 0 395.52 80.97664932362122" height="80.97664932362122" width="395.52" id="SvgjsSvg1005"><g><svg viewBox="0 0 395.52 80.97664932362122" height="80.97664932362122" width="395.52"><g transform="matrix(1,0,0,1,0,0)"><svg width="395.52" viewBox="-0.8500000000000001 -37.35 193.19 40.35" height="80.97664932362122" data-palette-color="#ed1703"><path d="M17.9-26.1L17.9-26.1Q15.75-26.1 14.73-24.85 13.7-23.6 13.7-20.4L13.7-20.4 13.7-14.5 22-14.5 22-20.5Q22-22.6 21.5-23.88 21-25.15 20.13-25.63 19.25-26.1 17.9-26.1ZM22-4.95L22-7.6 13.7-7.6 13.7-4.95Q13.7-2.4 12.35-1.2 11 0 7.7 0L7.7 0Q6.3 0 5.4-0.4 4.5-0.8 3.83-1.75 3.15-2.7 2.83-4.53 2.5-6.35 2.33-8.93 2.15-11.5 2.15-15.45L2.15-15.45Q2.15-18.9 2.88-21.78 3.6-24.65 4.83-26.65 6.05-28.65 7.6-30.18 9.15-31.7 10.98-32.55 12.8-33.4 14.53-33.83 16.25-34.25 18-34.25L18-34.25Q20.1-34.25 22.15-33.68 24.2-33.1 26.3-31.7 28.4-30.3 29.98-28.23 31.55-26.15 32.55-22.85 33.55-19.55 33.55-15.45L33.55-15.45Q33.55-8.85 33.08-5.68 32.6-2.5 31.48-1.25 30.35 0 28 0L28 0Q24.7 0 23.35-1.2 22-2.4 22-4.95L22-4.95ZM71.75-28.7L71.75-7.5Q71.75-3.45 70.3-1.73 68.85 0 65.9 0L65.9 0Q63 0 61.65-1.58 60.3-3.15 60.3-7.15L60.3-7.15 60.25-12.8 50.05-12.8 50.05-7.5Q50.05-3.4 48.65-1.7 47.25 0 44.2 0L44.2 0Q41.3 0 39.95-1.58 38.6-3.15 38.6-7.15L38.6-7.15 38.45-28.25Q38.45-31.35 40.02-32.8 41.6-34.25 44.2-34.25L44.2-34.25Q47.2-34.25 48.62-33.15 50.05-32.05 50.05-28.7L50.05-28.7 50.05-20.3 60.2-20.3 60.2-28.25Q60.2-30.35 60.97-31.73 61.75-33.1 62.97-33.68 64.2-34.25 65.9-34.25L65.9-34.25Q68.8-34.25 70.27-33.15 71.75-32.05 71.75-28.7L71.75-28.7ZM107.44-5.2L107.44-18.3 101.19-5.5Q100.39-3.9 99.5-3.23 98.59-2.55 97.34-2.55L97.34-2.55Q95.75-2.55 94.64-3.68 93.55-4.8 91.8-7.75L91.8-7.75 86-18.3 86-4.15Q86-2 85.02-1 84.05 0 82.09 0L82.09 0Q79.89 0 78.89-0.98 77.89-1.95 77.89-4.8L77.89-4.8 77.89-26.6Q77.89-30.45 79.64-32.4 81.39-34.35 85.55-34.35L85.55-34.35Q87.09-34.35 88.25-33.83 89.39-33.3 89.97-32.63 90.55-31.95 91.09-30.95L91.09-30.95 97.8-16.3 104.89-30.7Q106.75-34.3 111.55-34.3L111.55-34.3Q113.8-34.3 115.4-33.52 117-32.75 117.92-31.03 118.84-29.3 118.84-26.7L118.84-26.7 118.84-4.95Q118.8 0 112.59 0L112.59 0Q110.34 0 108.92-1.23 107.5-2.45 107.44-5.2L107.44-5.2ZM136.99-20.3L145.59-20.3Q148.24-20.3 149.32-19.45 150.39-18.6 150.39-16.55L150.39-16.55Q150.39-14.85 149.12-14.13 147.84-13.4 145.14-13.4L145.14-13.4 137.04-13.4 137.04-8.1 147.89-8.05Q150.69-8.05 151.92-7.23 153.14-6.4 153.14-4.3L153.14-4.3Q153.14-1.9 151.72-0.95 150.29 0 147.39 0L147.39 0 131.19 0Q128.24 0 126.87-1.58 125.49-3.15 125.49-7.15L125.49-7.15 125.49-28.25Q125.49-34.25 131.19-34.25L131.19-34.25 147.39-34.25Q150.29-34.25 151.72-33.35 153.14-32.45 153.14-30.1L153.14-30.1Q153.14-27.9 151.92-27.03 150.69-26.15 147.89-26.15L147.89-26.15 136.99-26.15 136.99-20.3ZM170.59-27.25L170.59-6.8Q171.89-6.8 172.87-7.08 173.84-7.35 174.72-8.08 175.59-8.8 176.14-10 176.69-11.2 177.02-13.08 177.34-14.95 177.34-17.5L177.34-17.5Q177.34-20.35 176.84-22.33 176.34-24.3 175.39-25.33 174.44-26.35 173.32-26.78 172.19-27.2 170.59-27.25L170.59-27.25ZM164.74-34.2L172.09-34.2Q179.89-34.2 184.62-29.7 189.34-25.2 189.34-17.3L189.34-17.3Q189.34-14.75 188.87-12.35 188.39-9.95 187.29-7.68 186.19-5.4 184.54-3.73 182.89-2.05 180.34-1.03 177.79 0 174.59 0L174.59 0 164.74 0Q161.69 0 160.37-1.55 159.04-3.1 159.04-7.15L159.04-7.15 159.04-28.25Q159.04-34.2 164.74-34.2L164.74-34.2Z" opacity="1" transform="matrix(1,0,0,1,0,0)" fill="black" class="wordmark-text-0" id="SvgjsPath1004" stroke-width="5" stroke="black" stroke-linejoin="round"></path></svg></g></svg></g></svg></g></svg></g><g></g></svg></g></svg></g></svg></g></mask><g mask="url(#ffc5b176-eafb-4f1e-b56d-b9c0959407c8)"><g><path d="M198.121 58.823v0c-10.345 0-17.972 3.007-22.88 9.022-4.956 6.015-7.434 16.721-7.434 32.118v0 42.583h59.906v-43.305c0-10.105-1.203-18.236-3.609-24.395-2.406-6.111-5.702-10.321-9.888-12.631-4.234-2.261-9.599-3.392-16.095-3.392zM227.713 211.473v-19.126h-59.906v19.126c0 12.27-3.248 21.292-9.743 27.066-6.496 5.774-17.683 8.661-33.562 8.661v0c-6.736 0-12.27-0.962-16.6-2.887-4.331-1.925-8.108-5.173-11.332-9.744-3.272-4.571-5.678-11.259-7.217-20.064-1.588-8.757-2.791-19.343-3.609-31.757-0.866-12.366-1.299-28.052-1.299-47.059v0c0-16.6 1.756-31.829 5.269-45.687 3.464-13.81 8.156-25.526 14.074-35.149 5.87-9.623 12.534-18.116 19.992-25.478 7.458-7.314 15.59-13.016 24.396-17.105 8.757-4.09 17.298-7.169 25.622-9.239 8.276-2.021 16.624-3.031 25.045-3.031v0c10.105 0 20.089 1.371 29.952 4.114 9.864 2.791 19.848 7.554 29.953 14.291 10.105 6.736 18.958 15.085 26.561 25.044 7.554 10.008 13.737 22.952 18.549 38.831 4.812 15.879 7.218 33.682 7.217 53.409v0c0 31.757-1.131 55.262-3.392 70.515-2.31 15.301-6.159 25.959-11.548 31.974-5.437 6.015-13.81 9.022-25.117 9.022v0c-15.879 0-27.066-2.887-33.562-8.661-6.496-5.774-9.744-14.796-9.743-27.066z" fill="#ed1703" fill-rule="nonzero" stroke="none" stroke-width="1" stroke-linecap="butt" stroke-linejoin="miter" stroke-miterlimit="10" stroke-dasharray="" stroke-dashoffset="0" font-family="none" font-weight="none" font-size="none" text-anchor="none" style="mix-blend-mode: normal" data-fill-palette-color="tertiary"></path></g></g><g transform="matrix(1,0,0,1,0,83.11167533818939)"><svg viewBox="0 0 395.52 80.97664932362122" height="80.97664932362122" width="395.52"><g><svg viewBox="0 0 395.52 80.97664932362122" height="80.97664932362122" width="395.52"><g><svg viewBox="0 0 395.52 80.97664932362122" height="80.97664932362122" width="395.52"><g><svg viewBox="0 0 395.52 80.97664932362122" height="80.97664932362122" width="395.52"><g id="textblocktransform"><svg viewBox="0 0 395.52 80.97664932362122" height="80.97664932362122" width="395.52" id="textblock"><g><svg viewBox="0 0 395.52 80.97664932362122" height="80.97664932362122" width="395.52"><g transform="matrix(1,0,0,1,0,0)"><svg width="395.52" viewBox="-0.8500000000000001 -37.35 193.19 40.35" height="80.97664932362122" data-palette-color="#ed1703"><path d="M17.9-26.1L17.9-26.1Q15.75-26.1 14.73-24.85 13.7-23.6 13.7-20.4L13.7-20.4 13.7-14.5 22-14.5 22-20.5Q22-22.6 21.5-23.88 21-25.15 20.13-25.63 19.25-26.1 17.9-26.1ZM22-4.95L22-7.6 13.7-7.6 13.7-4.95Q13.7-2.4 12.35-1.2 11 0 7.7 0L7.7 0Q6.3 0 5.4-0.4 4.5-0.8 3.83-1.75 3.15-2.7 2.83-4.53 2.5-6.35 2.33-8.93 2.15-11.5 2.15-15.45L2.15-15.45Q2.15-18.9 2.88-21.78 3.6-24.65 4.83-26.65 6.05-28.65 7.6-30.18 9.15-31.7 10.98-32.55 12.8-33.4 14.53-33.83 16.25-34.25 18-34.25L18-34.25Q20.1-34.25 22.15-33.68 24.2-33.1 26.3-31.7 28.4-30.3 29.98-28.23 31.55-26.15 32.55-22.85 33.55-19.55 33.55-15.45L33.55-15.45Q33.55-8.85 33.08-5.68 32.6-2.5 31.48-1.25 30.35 0 28 0L28 0Q24.7 0 23.35-1.2 22-2.4 22-4.95L22-4.95ZM71.75-28.7L71.75-7.5Q71.75-3.45 70.3-1.73 68.85 0 65.9 0L65.9 0Q63 0 61.65-1.58 60.3-3.15 60.3-7.15L60.3-7.15 60.25-12.8 50.05-12.8 50.05-7.5Q50.05-3.4 48.65-1.7 47.25 0 44.2 0L44.2 0Q41.3 0 39.95-1.58 38.6-3.15 38.6-7.15L38.6-7.15 38.45-28.25Q38.45-31.35 40.02-32.8 41.6-34.25 44.2-34.25L44.2-34.25Q47.2-34.25 48.62-33.15 50.05-32.05 50.05-28.7L50.05-28.7 50.05-20.3 60.2-20.3 60.2-28.25Q60.2-30.35 60.97-31.73 61.75-33.1 62.97-33.68 64.2-34.25 65.9-34.25L65.9-34.25Q68.8-34.25 70.27-33.15 71.75-32.05 71.75-28.7L71.75-28.7ZM107.44-5.2L107.44-18.3 101.19-5.5Q100.39-3.9 99.5-3.23 98.59-2.55 97.34-2.55L97.34-2.55Q95.75-2.55 94.64-3.68 93.55-4.8 91.8-7.75L91.8-7.75 86-18.3 86-4.15Q86-2 85.02-1 84.05 0 82.09 0L82.09 0Q79.89 0 78.89-0.98 77.89-1.95 77.89-4.8L77.89-4.8 77.89-26.6Q77.89-30.45 79.64-32.4 81.39-34.35 85.55-34.35L85.55-34.35Q87.09-34.35 88.25-33.83 89.39-33.3 89.97-32.63 90.55-31.95 91.09-30.95L91.09-30.95 97.8-16.3 104.89-30.7Q106.75-34.3 111.55-34.3L111.55-34.3Q113.8-34.3 115.4-33.52 117-32.75 117.92-31.03 118.84-29.3 118.84-26.7L118.84-26.7 118.84-4.95Q118.8 0 112.59 0L112.59 0Q110.34 0 108.92-1.23 107.5-2.45 107.44-5.2L107.44-5.2ZM136.99-20.3L145.59-20.3Q148.24-20.3 149.32-19.45 150.39-18.6 150.39-16.55L150.39-16.55Q150.39-14.85 149.12-14.13 147.84-13.4 145.14-13.4L145.14-13.4 137.04-13.4 137.04-8.1 147.89-8.05Q150.69-8.05 151.92-7.23 153.14-6.4 153.14-4.3L153.14-4.3Q153.14-1.9 151.72-0.95 150.29 0 147.39 0L147.39 0 131.19 0Q128.24 0 126.87-1.58 125.49-3.15 125.49-7.15L125.49-7.15 125.49-28.25Q125.49-34.25 131.19-34.25L131.19-34.25 147.39-34.25Q150.29-34.25 151.72-33.35 153.14-32.45 153.14-30.1L153.14-30.1Q153.14-27.9 151.92-27.03 150.69-26.15 147.89-26.15L147.89-26.15 136.99-26.15 136.99-20.3ZM170.59-27.25L170.59-6.8Q171.89-6.8 172.87-7.08 173.84-7.35 174.72-8.08 175.59-8.8 176.14-10 176.69-11.2 177.02-13.08 177.34-14.95 177.34-17.5L177.34-17.5Q177.34-20.35 176.84-22.33 176.34-24.3 175.39-25.33 174.44-26.35 173.32-26.78 172.19-27.2 170.59-27.25L170.59-27.25ZM164.74-34.2L172.09-34.2Q179.89-34.2 184.62-29.7 189.34-25.2 189.34-17.3L189.34-17.3Q189.34-14.75 188.87-12.35 188.39-9.95 187.29-7.68 186.19-5.4 184.54-3.73 182.89-2.05 180.34-1.03 177.79 0 174.59 0L174.59 0 164.74 0Q161.69 0 160.37-1.55 159.04-3.1 159.04-7.15L159.04-7.15 159.04-28.25Q159.04-34.2 164.74-34.2L164.74-34.2Z" opacity="1" transform="matrix(1,0,0,1,0,0)" fill="#ed1703" class="wordmark-text-0" data-fill-palette-color="primary" id="text-0"></path></svg></g></svg></g></svg></g></svg></g><g></g></svg></g></svg></g></svg></g></svg></g><defs></defs></svg><rect width="395.52" height="247.2" fill="none" stroke="none" visibility="hidden"></rect></g></svg></g></svg>